<?xml version="1.0" encoding="iso-8859-1"?>
<!-- Generator: Adobe Illustrator 26.2.1, SVG Export Plug-In . SVG Version: 6.00 Build 0)  -->
<svg version="1.1" id="b3c8fd10-556e-4abe-95ea-518d5e4dc078"
	 xmlns="http://www.w3.org/2000/svg" xmlns:xlink="http://www.w3.org/1999/xlink" x="0px" y="0px" viewBox="0 0 1024 1024"
	 style="enable-background:new 0 0 1024 1024;" xml:space="preserve">
<rect style="fill:none;" width="1024" height="1024"/>
<path style="fill:#DBBFFF;enable-background:new    ;" d="M910.73,563.73c-18.52-26.81-32.91-50.24-44.07-71
	c-17.49-8.06-28.44,5.18-28.94,5.8c-2.209,2.761-6.239,3.209-9,1s-3.209-6.239-1-9c5-6.29,16.39-14.4,31-13.11
	c-78.31-158.94,49.46-144.73-70.53-304C619.27-50.76,286.59,79.76,243,266.27c-11.82,50.73-48.91,83.61-72.13,106.63
	c-37,36.7-76,62-84.72,129.46c-3.42,26.52-5.54,49.51-4.69,71.12c2.842,1.223,5.567,2.702,8.14,4.42c21,14,34.47,0.93,34.59,0.8
	c2.675-2.311,6.716-2.015,9.027,0.66c2.067,2.393,2.077,5.936,0.023,8.34c-4.3,4.31-13.16,9.41-24.67,9.41
	c-7.67,0-16.52-2.27-26-8.56c7.85,70.5,53.4,131.06,199.35,261.23C494.29,1039.23,1086,817.41,910.73,563.73z"/>
<path style="fill:#FFFFFF;" d="M290.85,672.82c0,0-25.6,85.34-29.85,145.07s51.2,12.8,51.2,12.8s4.26-115.2,34.13-140.8
	S290.85,672.82,290.85,672.82z"/>
<path style="fill:#040000;" d="M276.27,850.33c-2.628,0.053-5.23-0.523-7.59-1.68c-7.7-3.91-11-14.31-9.82-30.91
	c4.23-59.28,29.69-144.67,29.95-145.53l0.41-1.37l1.42-0.14c9.68-1,58.29-5.17,63.63,7.31c1.66,3.88-0.49,8.29-6.56,13.5
	c-28.83,24.71-33.35,138.12-33.39,139.26v0.94l-0.71,0.61C312.56,833.17,292.07,850.33,276.27,850.33z M292.49,674.81
	C289.21,686,267,763.34,263.12,818c-1.06,14.73,1.47,23.74,7.5,26.81c10.67,5.44,31.44-8.6,39.47-15.19
	c0.5-11.92,5.73-116.44,34.84-141.39c4.29-3.68,6.21-6.72,5.42-8.58C347.39,672.77,315.23,672.67,292.49,674.81z"/>
<path style="fill:#040000;" d="M380.45,489.36c0,0-55.45,12.8-85.33,89.64c-11.26,28.95-18.2,60.77-25.57,80.45
	c-4.274,11.444,1.538,24.187,12.982,28.461c0.438,0.164,0.881,0.313,1.328,0.449l54.63,16.62c11.481,3.5,23.66-2.791,27.45-14.18
	l27.31-81.94L380.45,489.36z"/>
<polygon style="fill:#FFFFFF;" points="265.25,681.36 350.58,672.82 346.32,711.22 290.85,728.29 265.25,728.29 "/>
<path style="fill:#040000;" d="M291.17,730.42h-28.05v-51l89.88-9l-4.71,42.41L291.17,730.42z M267.39,726.16h23.14l53.82-16.56
	l3.82-34.39l-80.78,8.08L267.39,726.16z"/>
<path style="fill:#FFFFFF;" d="M239.65,692.11v66h25.6v-76.8l-19.2,3.2C242.34,685.129,239.628,688.349,239.65,692.11z"/>
<path style="fill:#040000;" d="M267.39,760.29h-29.87v-68.18c-0.014-4.791,3.452-8.884,8.18-9.66l21.69-3.61V760.29z M241.79,756
	h21.33v-72.12l-16.72,2.78c-2.665,0.441-4.617,2.749-4.61,5.45V756z"/>
<polygon style="fill:#FFFFFF;" points="290.85,726.16 357.41,711.22 367.65,736.11 311.33,741.09 "/>
<path style="fill:#040000;" d="M310.72,743.29l-24.93-18.18l72.91-16.36l12,29.23L310.72,743.29z M295.92,727.21l16,11.68
	l52.64-4.65l-8.46-20.54L295.92,727.21z"/>
<polygon style="fill:#040000;" points="299.38,736.82 388.99,711.22 393.25,890.42 299.38,924.56 "/>
<path style="fill:#040000;" d="M297.25,927.6V735.22l93.8-26.8l4.37,183.49L297.25,927.6z M301.52,738.43v183.08l89.56-32.57
	L386.92,714L301.52,738.43z"/>
<rect x="120.245" y="920.246" transform="matrix(1 -0.0059 0.0059 1 -5.4644 3.0845)" style="fill:#040000;" width="793.61" height="4.27"/>
<path style="fill:#FFFFFF;" d="M581,463c30.75,6.942,59.777,20.039,85.33,38.5l-10.88,144.1v279H506.91"/>
<path style="fill:#040000;" d="M655.45,926.69H506.91c-1.179-0.081-2.07-1.102-1.989-2.281c0.073-1.067,0.922-1.916,1.989-1.989
	h146.41V645.6l10.78-143.11c-25.088-17.933-53.503-30.679-83.58-37.49c-1.136-0.325-1.794-1.51-1.468-2.646
	c0.298-1.042,1.328-1.696,2.398-1.524c31.026,7.022,60.314,20.236,86.11,38.85c0.605,0.437,0.942,1.155,0.89,1.9l-10.87,144.18
	v278.8C657.58,925.736,656.626,926.69,655.45,926.69L655.45,926.69z"/>
<path style="fill:#FFFFFF;" d="M506.91,924.56l-173.39-4.27c0,0-13-234.53,25.48-396.73l24.16-42.34c28.71-17.34,58.44-25,108.29-24
	h30.92c19.705-0.437,39.39,1.504,58.63,5.78"/>
<path style="fill:#040000;" d="M506.91,926.69h-0.05l-173.39-4.27c-1.108-0.024-2.013-0.894-2.08-2
	c-0.13-2.35-12.62-236.7,25.53-397.35c0.046-0.196,0.12-0.385,0.22-0.56l24.16-42.34c0.186-0.312,0.443-0.576,0.75-0.77
	c30.54-18.43,61.23-25.27,109.44-24.31h30.86c19.86-0.438,39.701,1.503,59.1,5.78c1.136,0.325,1.794,1.51,1.468,2.646
	c-0.298,1.042-1.328,1.696-2.398,1.524c-19.037-4.202-38.509-6.112-58-5.69h-31c-47.11-0.94-77.09,5.66-106.72,23.42L361,524.35
	c-36.07,152.21-26.58,370.82-25.45,393.86L507,922.42c1.178,0.096,2.056,1.128,1.96,2.306c-0.087,1.068-0.95,1.908-2.02,1.964
	H506.91z"/>
<path style="fill:#FFFFFF;" d="M354.85,485.53c0,0,63.84,285,305,349.43l19.28-33.7c0,0-238.93-64.44-285.87-345.6
	C393.25,455.66,354.85,451.4,354.85,485.53z"/>
<path style="fill:#040000;" d="M659.84,837.09c-0.186,0.001-0.371-0.022-0.55-0.07C534,803.54,457.34,709.85,415.07,637.15
	c-45.74-78.68-62.14-150.44-62.3-151.15c-0.015-0.156-0.015-0.314,0-0.47c0-10,3.13-17.84,9.32-23.38
	c11.89-10.64,30.64-8.69,31.45-8.61c0.948,0.107,1.711,0.829,1.87,1.77c24.08,144.56,100.13,230.38,159.69,276.91
	c64.51,50.4,124,66.82,124.57,67c1.137,0.302,1.814,1.468,1.512,2.605c-0.048,0.18-0.119,0.353-0.212,0.515L661.69,836
	C661.315,836.67,660.608,837.087,659.84,837.09z M357,485.29c2.2,9.4,68.9,283.76,301.82,347.18l17.12-29.93
	c-12.32-3.8-66-22.06-123.46-67c-59.92-46.82-136.38-133-161-277.9c-4.56-0.2-18-0.05-26.56,7.67C359.69,470,357,476.7,357,485.29z"
	/>
<path style="fill:#040000;" d="M610.85,779.49c0,0,55.47-42.67,132.27-29.87l25.6,29.87c0,0-89.6,34.13-149.33,55.51
	c0,0-34.81-3.17-33.58-25.84c0.37-6.72,4.05-12.84,9.31-17L610.85,779.49z"/>
<path style="fill:#FFFFFF;" d="M585.25,805.09c0,0-22.54,93.4,5.12,140.29c7.82,13.25,22,21.94,37.33,21.34
	c4.596-0.037,9.094-1.338,13-3.76c0,0-38.4-68.27-21.33-128C619.39,835,585.25,826.42,585.25,805.09z"/>
<path style="fill:#040000;" d="M626.2,968.88c-15.12,0-29.45-8.48-37.67-22.42c-27.78-47.09-6.28-138-5.35-141.87
	c0.252-1.046,1.253-1.733,2.32-1.59c1.076,0.127,1.887,1.037,1.89,2.12c0,19.44,32.19,27.72,32.51,27.8
	c0.562,0.137,1.042,0.499,1.33,1c0.286,0.5,0.362,1.094,0.21,1.65c-16.62,58.17,20.76,125.7,21.14,126.37
	c0.542,0.974,0.246,2.2-0.68,2.82c-4.23,2.655-9.116,4.082-14.11,4.12H626.2z M585.39,814.79c-4.74,24.59-15,92.44,6.82,129.5
	c7.71,13.07,21.28,20.83,35.41,20.3c3.553-0.053,7.051-0.883,10.25-2.43c-5.86-11.26-35.33-71.81-21.1-125.72
	C610.44,834.54,591.89,828,585.39,814.79z"/>
<path style="fill:#FFFFFF;" d="M640.72,963c0,0,51.57-33.37,108.67-54.07c16.972-6.168,26.442-24.258,21.84-41.72
	c-6.62-25.26-12.32-60.7-2.51-87.68c0,0-89.6,34.13-149.33,55.47c0,0-17.07,68.26,21.33,123.73"/>
<path style="fill:#040000;" d="M640.72,965.09c-1.176,0.003-2.132-0.948-2.135-2.125c-0.002-0.726,0.366-1.402,0.976-1.795
	l0.64-0.41c-0.5-0.124-0.938-0.426-1.23-0.85c-38.51-55.62-21.83-124.78-21.65-125.47c0.173-0.691,0.679-1.25,1.35-1.49
	c59-21.08,148.4-55.11,149.29-55.45c1.099-0.419,2.33,0.132,2.749,1.231c0.183,0.479,0.186,1.007,0.011,1.489
	c-9.64,26.51-3.93,61.62,2.57,86.41c4.963,18.536-5.111,37.783-23.17,44.27c-56.2,20.37-107.73,53.52-108.24,53.85
	C641.534,964.972,641.131,965.091,640.72,965.09z M621.21,836.57c-1.93,9-13.5,70.7,21.26,120.91c0.334,0.477,0.457,1.07,0.34,1.64
	c12.24-7.59,57.3-34.64,105.86-52.24c15.978-5.741,24.887-22.771,20.49-39.17c-6.3-24.07-11.87-57.72-3.87-84.63
	C747,790,672.92,818.08,621.21,836.57z"/>
<path style="fill:#FFFFFF;" d="M458.8,416.17c0,0,4.66,40.79-18.61,50.2c0,0,46.54,34.52,102.4-3.13c0,0-23.28-12.55-18.62-59.62
	L458.8,416.17z"/>
<path style="fill:#040000;" d="M488.75,482.84c-29.42,0-49.53-14.52-49.83-14.75c-0.947-0.699-1.148-2.032-0.449-2.979
	c0.234-0.318,0.553-0.564,0.919-0.711c21.51-8.71,17.34-47.59,17.29-48c-0.125-1.109,0.624-2.128,1.72-2.34l65.16-12.55
	c1.161-0.22,2.281,0.542,2.502,1.703c0.037,0.197,0.047,0.397,0.028,0.597c-4.44,44.88,17.3,57.41,17.52,57.53
	c0.651,0.361,1.068,1.036,1.1,1.78c0.03,0.741-0.321,1.447-0.93,1.87C523.79,478.48,504.87,482.84,488.75,482.84z M444.49,466.62
	c8.238,4.85,17.218,8.313,26.58,10.25c23.13,4.83,45.9,0.22,67.72-13.69c-6.16-5-20-20.41-17.2-56.93L461.1,417.9
	C461.7,426,462.61,455.87,444.49,466.62z"/>
<path style="fill:#FFFFFF;" d="M391.14,292.78h29.65l0,0v49.72l0,0h-29.65c-13.73,0-24.86-11.13-24.86-24.86l0,0
	C366.28,303.91,377.41,292.78,391.14,292.78z"/>
<path style="fill:#040000;" d="M420.79,344.63H390c-14.253-0.017-25.803-11.567-25.82-25.82v-2.34
	c0.017-14.253,11.567-25.803,25.82-25.82h30.82c1.176,0,2.13,0.954,2.13,2.13l0,0v49.72c0,1.176-0.953,2.13-2.13,2.13
	C420.81,344.63,420.8,344.63,420.79,344.63z M390,294.92c-11.895,0.017-21.533,9.655-21.55,21.55v2.34
	c0.017,11.897,9.654,21.538,21.55,21.56h28.68v-45.45H390z"/>
<path style="fill:#FFFFFF;" d="M580.85,342.5H551.2l0,0v-49.72l0,0h29.65c13.73,0,24.86,11.13,24.86,24.86l0,0
	C605.71,331.37,594.58,342.5,580.85,342.5z"/>
<path style="fill:#040000;" d="M582,344.63h-30.83c-1.176,0.022-2.148-0.913-2.17-2.09c0-0.013,0-0.027,0-0.04v-49.72
	c0-1.176,0.954-2.13,2.13-2.13l0,0H582c14.253,0.017,25.803,11.567,25.82,25.82v2.34C607.803,333.063,596.253,344.613,582,344.63z
	 M553.31,340.37H582c11.896-0.022,21.533-9.663,21.55-21.56v-2.34c-0.017-11.895-9.655-21.533-21.55-21.55h-28.7L553.31,340.37z"/>
<path style="fill:#FFFFFF;" d="M400.56,210.32H571.4l0,0v124.4c0.028,49.833-40.347,90.252-90.18,90.28c-0.02,0-0.04,0-0.06,0l0,0
	c-44.514,0-80.6-36.086-80.6-80.6l0,0v-134l0,0V210.32z"/>
<path style="fill:#040000;" d="M488.89,427.09h-5.82c-46.721-0.05-84.585-37.909-84.64-84.63V210.32c0-1.176,0.954-2.13,2.13-2.13
	l0,0h170.83c1.176-0.006,2.134,0.944,2.14,2.12c0,0.003,0,0.007,0,0.01v132.14C573.475,389.181,535.611,427.04,488.89,427.09z
	 M402.69,212.46v130c0.055,44.367,36.013,80.316,80.38,80.36h5.82c44.365-0.044,80.32-35.995,80.37-80.36v-130L402.69,212.46z"/>
<path style="fill:#040000;" d="M592.31,180.44c0.084-0.777,0.127-1.558,0.13-2.34c0-14.83-12.82-26.85-28.62-26.85
	c-3.785-0.008-7.537,0.697-11.06,2.08c-8.7-8.46-21.74-13.84-36.33-13.84c-15,0-28.41,5.72-37.09,14.62
	c-7.871-7.139-18.134-11.065-28.76-11c-16.93,0-31.46,9.6-37.78,23.3c-3.868-1.658-8.032-2.515-12.24-2.52
	c-16.15,0-29.52,12.36-32.1,28.55c-11.59,5.22-19.53,15.79-19.53,28c0,14.06,10.5,26,25,30
	c6.869,18.275,27.252,27.521,45.527,20.652c7.134-2.681,13.21-7.596,17.323-14.012c15.541,9.87,35.83,7.754,49-5.11
	c7.51,10.78,19.41,17.78,32.87,17.78c10.415-0.062,20.38-4.252,27.71-11.65c7.678,4.446,16.397,6.779,25.27,6.76
	c26.4,0,47.81-19.89,47.81-44.43C619.39,202.81,608.32,187.62,592.31,180.44z"/>
<path style="fill:#FFFFFF;" d="M380.36,314.69c0,0,15.4-3.36,20.2,6.45"/>
<path style="fill:#040000;" d="M400.56,323.28c-0.817-0.001-1.561-0.466-1.92-1.2c-4-8.21-17.69-5.33-17.83-5.3
	c-1.152,0.251-2.289-0.478-2.54-1.63s0.478-2.289,1.63-2.54c0.7-0.15,17.1-3.59,22.58,7.6c0.508,1.063,0.061,2.337-1,2.85
	C401.194,323.203,400.879,323.278,400.56,323.28z"/>
<path style="fill:#FFFFFF;" d="M591.61,314.69c0,0-15.4-3.36-20.2,6.45"/>
<path style="fill:#040000;" d="M571.41,323.28c-0.326,0.001-0.648-0.074-0.94-0.22c-1.062-0.507-1.512-1.778-1.005-2.84
	c0.002-0.003,0.003-0.007,0.005-0.01c5.48-11.19,21.88-7.75,22.58-7.6c1.151,0.251,1.881,1.388,1.63,2.54
	c-0.251,1.152-1.388,1.881-2.54,1.63l0,0c-0.14,0-13.83-2.88-17.84,5.3C572.948,322.806,572.216,323.27,571.41,323.28z"/>
<path style="fill:#040000;" d="M434.87,341.76h-0.12l-20.28-1.11c-1.169-0.064-2.065-1.064-2.001-2.233
	c0-0.006,0.001-0.012,0.001-0.017c0.053-1.159,1.034-2.055,2.193-2.003c0.016,0.001,0.031,0.002,0.047,0.003l20.29,1.09
	c1.177,0.107,2.045,1.148,1.938,2.325c-0.098,1.074-0.98,1.908-2.058,1.945L434.87,341.76z"/>
<path style="fill:#040000;" d="M535.1,342.87c-1.176,0.03-2.155-0.899-2.185-2.075s0.899-2.155,2.075-2.185l20.28-1.12
	c1.151-0.089,2.156,0.771,2.245,1.922c0.002,0.026,0.004,0.052,0.005,0.078c0.063,1.17-0.831,2.17-2,2.24l-20.28,1.12L535.1,342.87z
	"/>
<path style="fill:#040000;" d="M446.59,337.49c-16.497,0.006-29.874-13.363-29.88-29.86c-0.006-16.497,13.363-29.874,29.86-29.88
	c16.497-0.006,29.874,13.363,29.88,29.86c0,0.003,0,0.007,0,0.01C476.433,324.106,463.076,337.468,446.59,337.49z M446.59,282.02
	c-14.138,0-25.6,11.462-25.6,25.6s11.462,25.6,25.6,25.6s25.6-11.462,25.6-25.6c-0.006-14.139-11.461-25.603-25.6-25.62V282.02z"/>
<path style="fill:#040000;" d="M524.38,337.49c-16.497,0.006-29.874-13.363-29.88-29.86c-0.006-16.497,13.363-29.874,29.86-29.88
	c16.497-0.006,29.874,13.363,29.88,29.86c0,0.003,0,0.007,0,0.01C554.223,324.106,540.866,337.468,524.38,337.49z M524.38,282.02
	c-14.138,0-25.6,11.461-25.6,25.6c0,14.138,11.461,25.6,25.6,25.6c14.138,0,25.6-11.461,25.6-25.6c0,0,0,0,0,0
	c-0.005-14.139-11.461-25.603-25.6-25.62V282.02z"/>
<path style="fill:#040000;" d="M474.32,311.89c-1.176,0.006-2.135-0.943-2.14-2.12c-0.003-0.721,0.358-1.394,0.96-1.79
	c4.89-3.26,16.41-7.44,24.93,0.19c0.825,0.846,0.807,2.201-0.039,3.026c-0.767,0.747-1.967,0.813-2.811,0.154
	c-8.19-7.35-19.6,0.11-19.72,0.18C475.151,311.764,474.74,311.89,474.32,311.89z"/>
<path style="fill:#040000;" d="M593.79,250c0,0-12.8,34.14-8.54,42.67c0,0-4.26-4.27-12.8,0v-29.85L593.79,250z"/>
<path style="fill:#040000;" d="M380.45,250c0,0,12.8,34.14,8.54,42.67c0,0,4.26-4.27,12.8,0v-29.85L380.45,250z"/>
<path style="fill:#FFFDFD;" d="M423.72,218.89c-10,0-17.15-2.51-21.21-7.52c-6-7.35-2.89-17.07-2.75-17.48
	c0.361-1.114,1.556-1.724,2.67-1.363c0.003,0.001,0.006,0.002,0.01,0.003c1.119,0.367,1.735,1.567,1.38,2.69c0,0.08-2.5,8,2,13.49
	c4.07,5,12.91,6.87,25.58,5.46c1.151-0.143,2.2,0.674,2.343,1.825c0.003,0.022,0.005,0.043,0.007,0.065
	c0.129,1.168-0.712,2.219-1.88,2.35C429.164,218.718,426.443,218.878,423.72,218.89z"/>
<path style="fill:#FFFDFD;" d="M466.12,222.93c-5.57,0-8.9-0.24-9-0.25c-1.174-0.068-2.071-1.076-2.003-2.25
	c0.001-0.013,0.002-0.027,0.003-0.04c0.08-1.185,1.105-2.08,2.29-2c0.55,0,55.3,3.9,96.87-21c1.011-0.605,2.32-0.276,2.925,0.735
	c0.605,1.011,0.276,2.32-0.735,2.925C524,220.55,483.79,222.93,466.12,222.93z"/>
<path style="fill:#040000;" d="M493.4,475.38c-26.78,1.07-41.25-4.79-48.95-15.89c-1.89,2.85-12.94,1.18-12.8,4.27
	c0.68,15.16,29.18,29.51,61.75,28.21s58.4-17.31,57.72-32.48c-0.09-2-6.08-2.06-9.9-2.92c-1.922-0.449-3.931,0.243-5.17,1.78
	C528.55,467.84,516.82,474.44,493.4,475.38z"/>
<path style="fill:#040000;" d="M761.08,404.31c-4.78,0-9.18-3.36-13.08-10c-3.08-5.24-6.24-8-9.13-8.08h-0.06
	c-3.64,0-6.74,4.3-7.9,6.16c-1.702,2.879-3.883,5.446-6.45,7.59c-7.46,5.87-15.36,4.84-21.69-2.76c-3.14-3.77-6.14-5.68-8.92-5.68
	l0,0c-2.75,0-4.93,1.92-6.27,3.53c-3,3.57-5.88,5.89-8.88,7.08c-4.31,1.71-10.76,2.37-17.06-4.22c-2.49-2.6-5-3.81-7.55-3.58
	c-4.92,0.45-8.62,6-8.66,6c-0.643,0.986-1.964,1.263-2.95,0.62c-0.986-0.643-1.263-1.964-0.62-2.95l0,0
	c0.19-0.3,4.85-7.3,11.81-7.95c3.9-0.35,7.62,1.29,11.06,4.88c3.73,3.91,7.9,5,12.39,3.21c2.32-0.93,4.67-2.84,7.19-5.86
	c1.92-2.3,5.13-5,9.54-5l0,0c4.1,0,8.2,2.43,12.18,7.21c4.93,5.91,10.09,6.61,15.79,2.14c2.177-1.844,4.023-4.045,5.46-6.51
	c1.93-3.06,6-8.16,11.51-8.16h0.14c4.52,0.06,8.8,3.49,12.74,10.18c3.08,5.23,6.24,7.88,9.41,7.88l0,0c4.57,0,8.75-5.74,10-7.93
	c0.642-0.992,1.967-1.276,2.959-0.633c0.901,0.583,1.23,1.744,0.771,2.713c-0.23,0.41-5.68,10-13.65,10.12H761.08z"/>
<path style="fill:#040000;" d="M761.08,429.63c-4.78,0-9.18-3.36-13.08-10c-3.08-5.24-6.24-8-9.13-8.07h-0.06
	c-3.64,0-6.74,4.29-7.9,6.15c-1.702,2.882-3.883,5.452-6.45,7.6c-7.46,5.86-15.36,4.84-21.69-2.76c-3.14-3.77-6.14-5.68-8.92-5.68
	l0,0c-2.75,0-4.93,1.91-6.27,3.52c-3,3.58-5.88,5.89-8.88,7.09c-4.31,1.71-10.76,2.36-17.06-4.22c-2.49-2.6-5-3.83-7.55-3.58
	c-4.92,0.44-8.62,6-8.66,6c-0.646,0.986-1.969,1.261-2.955,0.615c-0.986-0.646-1.261-1.969-0.615-2.955l0,0
	c0.19-0.3,4.85-7.3,11.81-7.94c3.9-0.36,7.62,1.28,11.06,4.88c3.73,3.9,7.9,5,12.39,3.2c2.32-0.92,4.67-2.84,7.19-5.85
	c1.92-2.31,5.13-5.06,9.54-5.06l0,0c4.1,0,8.2,2.43,12.18,7.22c4.93,5.91,10.09,6.6,15.79,2.13c2.177-1.844,4.023-4.045,5.46-6.51
	c1.93-3.05,6-8.15,11.51-8.15h0.14c4.52,0.07,8.8,3.49,12.74,10.18c3.08,5.24,6.24,7.89,9.41,7.89l0,0c4.57-0.05,8.75-5.74,10-7.93
	c0.642-0.992,1.967-1.276,2.959-0.633c0.901,0.583,1.23,1.744,0.771,2.713c-0.23,0.41-5.68,10-13.65,10.11L761.08,429.63z"/>
<circle style="fill:#FFFFFF;" cx="275.16" cy="219.18" r="18.44"/>
<path style="fill:#040000;" d="M275.16,239.76c-11.366,0-20.58-9.214-20.58-20.58c0-11.366,9.214-20.58,20.58-20.58
	c11.366,0,20.58,9.214,20.58,20.58v0C295.729,230.541,286.521,239.749,275.16,239.76z M275.16,202.87
	c-9.008,0-16.31,7.302-16.31,16.31s7.302,16.31,16.31,16.31s16.31-7.302,16.31-16.31l0,0
	C291.459,210.177,284.163,202.881,275.16,202.87z"/>
<path style="fill:#040000;" d="M486,358.78c-6.377,0.107-12.574-2.123-17.42-6.27c-0.753-0.903-0.632-2.247,0.272-3
	c0.79-0.659,1.938-0.659,2.728,0l0,0c0.49,0.47,12,11.4,31.54-0.32c1.011-0.605,2.32-0.276,2.925,0.735
	c0.605,1.011,0.276,2.32-0.735,2.925C497.87,357.28,491.35,358.78,486,358.78z"/>
<path style="fill:#040000;" d="M423.12,273.89c-0.423-0.002-0.837-0.127-1.19-0.36c-0.99-0.656-1.26-1.991-0.603-2.98
	c0.004-0.007,0.009-0.013,0.013-0.02c3.27-4.89,12.46-13.15,23.79-9.37c1.118,0.373,1.723,1.582,1.35,2.7
	c-0.373,1.118-1.582,1.723-2.7,1.35l0,0c-11.09-3.7-18.57,7.23-18.89,7.69C424.506,273.509,423.84,273.882,423.12,273.89z"/>
<path style="fill:#040000;" d="M546.85,273.89c-0.974-0.003-1.822-0.665-2.06-1.61c0-0.06-1.66-6.25-6.56-8.49
	c-3.14-1.43-7.1-1-11.76,1.34c-1.034,0.561-2.327,0.177-2.888-0.857c-0.561-1.034-0.177-2.327,0.857-2.888
	c0.043-0.023,0.087-0.045,0.131-0.065c5.88-2.94,11.09-3.41,15.47-1.4c6.76,3.12,8.8,11,8.88,11.32
	c0.288,1.135-0.399,2.288-1.534,2.576c-0.005,0.001-0.011,0.003-0.016,0.004C547.201,273.868,547.026,273.891,546.85,273.89z"/>
<path style="fill:#040000;" d="M778.42,634L710,706c-6.361,6.679-16.932,6.936-23.61,0.575c-0.366-0.349-0.716-0.714-1.05-1.095
	l-49.84-57c-25.28-28.78-39.21-66.2-37.27-104.48c1.3-25.73,10-48.47,35.12-55.1c62.84-16.6,125.16,89.63,147.13,124.68
	C784.561,620.053,783.712,628.473,778.42,634z"/>
<path style="fill:#FFFFFF;" d="M585.25,903.22c-17.06,8.54,0,17.07,0,17.07c-5.68,12.24,5,11.79,5,11.79
	c3.27,9,20.71,6.64,20.71,6.64c4.54-0.89,8,5.2,17,1.93c38.94-14.25,67.92-37.91,88.3-66.17c38.74-47.05,72.12-102.28,91.68-137.31
	c11.491-20.568,10.049-45.927-3.7-65.06l-48.39-67.43l-54.48,53.93l34.49,51.6c3.604,5.396,3.848,12.365,0.63,18L679.12,835
	c-2.84,5.1-11.29,18-17.07,17c-7.16-1.26-29.86-4.26-42.66,8.54c0,0-34.14,3.26-34.14,12.8c0,0-4,16,34.46,5.4
	c0.625-0.202,1.296,0.142,1.498,0.767c0.141,0.438,0.017,0.918-0.318,1.233C614.58,887.54,602.32,899,585.25,903.22z"/>
<path style="fill:#040000;" d="M622.88,943.76c-2.628-0.077-5.207-0.736-7.55-1.93c-1.75-0.77-2.87-1.23-3.91-1
	c-0.87,0.11-17.71,2.23-22.53-6.69c-2.466-0.186-4.732-1.425-6.22-3.4c-1.58-2.36-1.61-5.56-0.12-9.53c-2.58-1.63-7-5.11-7-9.76
	c0-3.81,2.94-7.22,8.76-10.12l0.44-0.16c11.31-2.84,22.42-9.55,32.29-19.49c-16.1,4.06-26.66,3.75-31.42-0.91
	c-2.044-1.986-2.975-4.852-2.49-7.66c0.45-10.33,28-13.84,35.31-14.59c13.11-12.42,35.07-10.16,44-8.59
	c3.22,0.62,10.32-7.81,14.83-16l57.36-106.72c2.866-4.939,2.664-11.08-0.52-15.82l-35.47-53.06l57.5-56.93L806,670.86
	c14.166,19.829,15.66,46.039,3.84,67.35c-16.84,30.17-51.24,88.17-91.92,137.63c-22.18,30.77-52.23,53.28-89.22,66.81
	C626.841,943.361,624.87,943.737,622.88,943.76z M612,936.48c1.769,0.126,3.493,0.62,5.06,1.45c2.71,1.19,5.52,2.43,10.2,0.71
	c36.17-13.23,65.54-35.23,87.3-65.41c40.55-49.3,74.76-107.05,91.54-137.1c11.022-19.864,9.628-44.298-3.58-62.78L755.57,608
	l-51.45,50.94L737.64,709c4.079,6.067,4.351,13.926,0.7,20.26L681,836c-1.12,2-11.07,19.6-19.32,18.16s-29.18-3.67-40.79,7.94
	l-0.54,0.54l-0.76,0.07c-15.49,1.48-32.2,6-32.2,10.68l-0.07,0.51c-0.229,1.435,0.265,2.891,1.32,3.89
	c2.24,2.12,9.18,4.81,30.5-1.06c1.775-0.48,3.604,0.57,4.084,2.345c0.3,1.109,0.007,2.293-0.774,3.135
	C611.54,894,598.94,901.94,586,905.23c-2.87,1.47-6.2,3.7-6.2,6.21c0,3,4.74,6.1,6.41,6.94l1.85,0.93l-0.87,1.88
	c-1.52,3.28-1.87,5.82-1,7.17c1.09,1.62,3.92,1.6,4,1.58l1.56-0.06l0.53,1.46c2.62,7.16,18.28,5.29,18.43,5.27
	C611.134,936.52,611.567,936.477,612,936.48z"/>
<path style="fill:#FFFFFF;" d="M393.25,455.66c0,0,12.8,3.83,17.07,12.36c0,0-4.27,0-12.8,4.27L393.25,455.66z"/>
<path style="fill:#040000;" d="M397.52,474.42c-0.307,0.001-0.61-0.064-0.89-0.19c-0.581-0.274-1.013-0.79-1.18-1.41l-4.26-16.63
	c-0.195-0.741,0.027-1.53,0.58-2.06c0.555-0.539,1.359-0.734,2.1-0.51c0.55,0.17,13.73,4.2,18.36,13.45
	c0.525,1.059,0.091,2.343-0.968,2.868c-0.293,0.145-0.615,0.221-0.942,0.222c0,0-4,0.12-11.85,4
	C398.178,474.321,397.853,474.41,397.52,474.42z M396.34,459.14l2.6,10.11c2.515-1.175,5.133-2.115,7.82-2.81
	C403.91,463,399.48,460.53,396.34,459.14z"/>
<path style="fill:#040000;" d="M585.25,922.42c-1.176,0.005-2.134-0.945-2.139-2.121c-0.004-1.067,0.782-1.973,1.839-2.119
	c0.29,0,29.32-4.32,41.46-16.46c0.903-0.753,2.247-0.632,3,0.272c0.659,0.79,0.659,1.938,0,2.728
	c-13.15,13.15-42.63,17.49-43.88,17.67C585.438,922.409,585.344,922.419,585.25,922.42z"/>
<path style="fill:#040000;" d="M590.3,934.21c-1.182-0.018-2.125-0.99-2.107-2.172c0.015-0.976,0.688-1.819,1.637-2.048
	c0.33-0.07,32.9-7.53,45.11-19.74c0.939-0.718,2.282-0.54,3,0.399c0.587,0.768,0.587,1.833,0,2.601
	c-13.09,13.08-45.81,20.57-47.19,20.89C590.602,934.177,590.452,934.2,590.3,934.21z"/>
<path style="fill:#040000;" d="M611,940.86c-1.182-0.016-2.127-0.987-2.111-2.169c0.013-0.948,0.648-1.775,1.561-2.031
	c12.26-3.263,23.571-9.392,33-17.88c0.903-0.753,2.247-0.632,3,0.272c0.659,0.79,0.659,1.938,0,2.728
	c-9.93,9.073-21.918,15.594-34.93,19C611.351,940.828,611.176,940.855,611,940.86z"/>
<polygon style="fill:#040000;" points="721.78,694.16 777.25,634.42 760.18,596.02 721.78,596.02 696.18,625.89 696.18,651.49 "/>
<path style="fill:#040000;" d="M218.86,740.29c15.14-7.78,47-21.22,77.89-15.33c7,1.33,12,8.17,12.18,16.09l3.25,171.39
	c0.17,9.1-6.18,16.67-14.28,17l-65.67,2.95c-8.18,0.36-15.09-6.75-15.46-15.93l-6.49-160.31C210,749.43,213.38,743.11,218.86,740.29
	z"/>
<path style="fill:#040000;" d="M231.62,934.57c-4.033-0.024-7.908-1.571-10.85-4.33c-3.764-3.563-5.968-8.469-6.13-13.65
	l-6.5-160.32c-0.3-7.65,3.52-14.67,9.74-17.87l0,0c16.24-8.35,48.14-21.47,79.27-15.53c7.89,1.5,13.74,9.13,13.92,18.14l3.25,171.39
	c0.19,10.18-7.13,18.79-16.32,19.21l-65.68,2.95L231.62,934.57z M219.83,742.19c-4.68,2.41-7.66,8-7.42,13.91l6.49,160.32
	c0.116,4.049,1.826,7.887,4.76,10.68c2.277,2.163,5.332,3.314,8.47,3.19l65.68-2.94c6.9-0.31,12.39-7,12.24-14.87l-3.25-171.39
	c-0.13-7-4.53-12.9-10.45-14c-29.88-5.71-60.77,7-76.52,15.13L219.83,742.19z"/>
<path style="fill:#040000;" d="M701.54,276.7c-1.176-0.003-2.128-0.959-2.125-2.135c0.002-0.926,0.602-1.745,1.485-2.025
	l44.75-14.16c1.134-0.311,2.306,0.356,2.618,1.49c0.295,1.075-0.288,2.195-1.338,2.57l-44.74,14.16
	C701.98,276.667,701.761,276.701,701.54,276.7z"/>
<path style="fill:#040000;" d="M731,292c-0.919-0.011-1.727-0.612-2-1.49l-14.2-44.75c-0.356-1.124,0.266-2.324,1.39-2.68
	c1.124-0.356,2.324,0.266,2.68,1.39L733,289.22c0.358,1.121-0.26,2.319-1.381,2.677c-0.003,0.001-0.006,0.002-0.009,0.003
	C731.413,291.965,731.207,291.998,731,292z"/>
<path style="fill:#FFFFFF;" d="M435.92,310.16c0,0,12.8-8.54,25.6,0"/>
<path style="fill:#040000;" d="M461.52,312.29c-0.42,0-0.831-0.126-1.18-0.36c-11.48-7.65-23.12-0.08-23.24,0
	c-0.98,0.652-2.303,0.385-2.955-0.595s-0.385-2.303,0.595-2.955c0.56-0.38,14.13-9.22,28,0c0.987,0.641,1.267,1.96,0.626,2.947
	c-0.012,0.018-0.024,0.036-0.036,0.053C462.921,311.972,462.239,312.315,461.52,312.29z"/>
<path style="fill:#FFFFFF;" d="M534.05,310.16c0,0-12.8-8.54-25.6,0"/>
<path style="fill:#040000;" d="M508.45,312.29c-1.176,0.006-2.135-0.943-2.14-2.12c-0.003-0.721,0.358-1.394,0.96-1.79
	c13.82-9.22,27.4-0.38,28,0c0.98,0.654,1.244,1.98,0.59,2.96c-0.654,0.98-1.98,1.244-2.96,0.59c-0.47-0.31-11.8-7.61-23.23,0
	C509.308,312.169,508.883,312.294,508.45,312.29z"/>
<path style="fill:#040000;" d="M717.52,150.16c-1.182-0.009-2.133-0.974-2.124-2.156c0.007-0.927,0.61-1.744,1.494-2.024
	c15.86-4.87,25.83-32.52,25.92-32.8c0.298-0.898,1.165-1.482,2.11-1.42c0.945,0.03,1.758,0.677,2,1.59
	c3,11.4,21.64,11.53,21.83,11.53c1.179,0.081,2.07,1.102,1.989,2.281c-0.073,1.067-0.922,1.916-1.989,1.989
	c-0.79,0-17.13-0.13-23.77-9.87c-3.78,8.65-13.08,26.56-26.8,30.78C717.967,150.13,717.744,150.164,717.52,150.16z"/>
<circle style="fill:#FFFFFF;" cx="700.45" cy="152.29" r="21.33"/>
<path style="fill:#040000;" d="M700.45,175.76c-12.962,0-23.47-10.508-23.47-23.47s10.508-23.47,23.47-23.47
	s23.47,10.508,23.47,23.47c0,0,0,0,0,0C723.903,165.245,713.405,175.743,700.45,175.76z M700.45,133.09
	c-10.604,0-19.2,8.596-19.2,19.2s8.596,19.2,19.2,19.2c10.604,0,19.2-8.596,19.2-19.2
	C719.639,141.691,711.049,133.101,700.45,133.09z"/>
<path style="fill:#040000;" d="M205.06,451.4c-1.176,0.006-2.135-0.942-2.142-2.118c-0.003-0.606,0.252-1.185,0.702-1.592
	c1.14-1.05,28.26-25.61,50.49-23.65c6.915,0.534,13.249,4.072,17.33,9.68c0.715,0.936,0.536,2.275-0.4,2.99
	c-0.936,0.715-2.275,0.536-2.99-0.4c-3.348-4.657-8.59-7.587-14.31-8c-20.31-1.77-47,22.3-47.24,22.55
	C206.102,451.211,205.59,451.403,205.06,451.4z"/>
<path style="fill:#040000;" d="M254,504.79c-0.351-0.004-0.695-0.097-1-0.27c-1.025-0.566-1.397-1.856-0.831-2.881
	c0.004-0.006,0.007-0.013,0.011-0.019c0.6-1.09,15-26.58,29.13-21.15c1.105,0.42,1.66,1.655,1.24,2.76
	c-0.42,1.105-1.655,1.66-2.76,1.24l0,0c-9-3.41-20.27,12.72-23.89,19.23C255.516,504.386,254.786,504.805,254,504.79z"/>
<path style="fill:#040000;" d="M271.42,398.79c-0.667,0.002-1.294-0.313-1.69-0.85c-19.16-25.15-52.21-18.74-52.55-18.68
	c-1.154,0.235-2.28-0.511-2.515-1.665c-0.235-1.154,0.511-2.28,1.665-2.515c0.36-0.07,36-7,56.79,20.28
	c0.719,0.931,0.547,2.269-0.384,2.988c-0.005,0.004-0.011,0.008-0.016,0.012C272.344,398.64,271.888,398.791,271.42,398.79z"/>
</svg>
